<?xml version="1.0" standalone="no"?>
<!DOCTYPE svg PUBLIC "-//W3C//DTD SVG 20010904//EN"
 "http://www.w3.org/TR/2001/REC-SVG-20010904/DTD/svg10.dtd">
<svg version="1.0" xmlns="http://www.w3.org/2000/svg"
 width="180.000000pt" height="180.000000pt" viewBox="0 0 180.000000 180.000000"
 preserveAspectRatio="xMidYMid meet">
<metadata>
Created by potrace 1.10, written by Peter Selinger 2001-2011
</metadata>
<g transform="translate(0.000000,180.000000) scale(0.100000,-0.100000)"
fill="#000000" stroke="none">
<path d="M830 1757 c-19 -8 -120 -62 -225 -121 -104 -60 -243 -138 -309 -175
-75 -42 -128 -78 -145 -100 l-26 -34 -2 -376 c-2 -264 0 -371 8 -358 6 10 11
141 13 345 2 180 7 342 11 360 10 41 67 99 118 119 20 8 37 19 37 25 0 5 3 7
8 5 4 -3 41 15 82 39 41 24 91 51 110 61 19 10 41 24 48 31 7 6 20 12 28 12 8
0 14 5 14 10 0 6 7 10 15 10 8 0 15 5 15 10 0 5 3 9 8 8 12 -2 44 13 111 55
61 39 171 75 171 56 0 -5 12 -9 26 -9 28 0 123 -56 160 -94 11 -12 18 -28 16
-35 -3 -8 0 -11 6 -8 6 5 9 -22 8 -76 -1 -68 -6 -88 -24 -114 -12 -17 -22 -33
-22 -36 0 -3 -14 -20 -31 -37 -36 -35 -82 -53 -186 -69 -40 -6 -88 -20 -107
-30 -19 -11 -37 -17 -40 -14 -3 4 -6 1 -6 -6 0 -7 -4 -9 -10 -6 -5 3 -10 -1
-10 -10 0 -9 -4 -13 -10 -10 -5 3 -10 -1 -10 -10 0 -11 -5 -15 -15 -11 -9 3
-15 0 -15 -8 0 -7 -8 -20 -17 -29 -10 -9 -26 -33 -37 -54 -10 -21 -22 -45 -26
-53 -4 -9 -7 -33 -5 -54 2 -45 5 -42 -125 -146 -51 -41 -136 -110 -189 -154
-53 -43 -104 -84 -113 -90 -24 -14 -23 -57 2 -105 22 -45 49 -63 290 -196 335
-186 405 -223 437 -230 65 -13 90 -1 600 288 78 44 156 95 173 112 34 36 49
83 50 159 0 55 6 55 -100 11 -111 -47 -236 -68 -415 -69 -244 -1 -384 36 -483
128 -72 68 -106 143 -107 236 0 65 4 84 33 142 55 113 146 171 291 188 92 10
122 24 173 77 58 61 81 114 81 191 1 78 -15 131 -46 159 -12 11 -52 37 -89 57
-76 42 -144 53 -198 33z m-271 -939 c34 -112 145 -219 271 -261 84 -28 224
-52 270 -45 32 5 39 -4 41 -50 1 -23 3 -21 8 8 l6 35 85 6 c101 8 245 25 245
29 0 1 13 4 28 6 16 1 48 12 72 24 25 12 49 19 55 15 15 -9 12 -51 -5 -65 -8
-7 -15 -18 -15 -24 0 -6 4 -4 10 4 5 8 11 12 15 9 8 -8 -63 -79 -79 -79 -8 0
-19 -7 -26 -15 -7 -8 -16 -12 -21 -9 -5 3 -9 1 -9 -4 0 -5 -15 -15 -32 -22
-18 -7 -37 -18 -43 -25 -5 -6 -40 -26 -77 -45 -38 -18 -68 -37 -68 -41 0 -4
-13 -10 -30 -14 -16 -4 -32 -11 -36 -16 -8 -13 -74 -40 -84 -34 -4 3 -11 -6
-14 -20 -5 -20 -13 -25 -38 -25 -17 0 -28 -3 -24 -7 3 -4 -24 -22 -61 -41 -56
-28 -76 -33 -116 -29 -49 4 -180 65 -171 79 3 4 -2 5 -10 2 -9 -4 -16 -1 -16
6 0 7 -7 10 -15 6 -8 -3 -15 -1 -15 4 0 6 -7 10 -15 10 -8 0 -15 4 -15 9 0 5
-8 11 -17 15 -10 3 -40 19 -68 35 -27 16 -66 37 -85 46 -19 9 -43 23 -53 33
-11 9 -21 16 -23 14 -8 -5 -166 91 -193 119 -47 46 -46 74 5 128 24 25 44 43
44 40 0 -4 19 12 43 35 23 23 57 53 76 66 18 14 42 33 52 43 11 9 19 14 19 10
0 -3 9 4 20 17 11 13 20 19 20 15 0 -4 8 1 18 12 15 18 35 30 53 32 3 1 12
-18 18 -41z"/>
<path d="M1277 1564 c-3 -3 -3 -17 -1 -31 15 -83 -49 -237 -128 -308 -72 -65
-111 -82 -221 -99 -111 -16 -156 -39 -195 -100 -23 -35 -27 -52 -26 -111 0
-59 4 -76 27 -111 51 -75 161 -118 345 -134 126 -11 295 0 397 26 104 27 205
74 211 99 3 12 4 129 2 261 -4 316 4 301 -241 432 -163 86 -160 85 -170 76z
m85 -66 c7 -7 19 -14 26 -16 7 -1 30 -13 50 -26 20 -13 48 -27 62 -31 39 -12
116 -76 136 -114 17 -30 19 -60 20 -268 1 -230 0 -235 -21 -249 -33 -22 -147
-66 -180 -70 -16 -2 -55 -9 -85 -15 -70 -14 -418 -8 -428 8 -6 9 -34 16 -90
23 -2 0 0 4 3 10 3 5 0 7 -8 4 -8 -3 -32 12 -54 34 -52 51 -72 121 -50 175 9
19 13 38 9 41 -5 5 12 10 29 8 4 -1 6 6 5 16 -2 25 77 59 152 67 62 6 122 29
196 75 20 12 34 25 31 30 -3 5 3 11 12 15 25 9 74 70 76 95 1 11 4 20 8 20 10
0 46 122 48 168 1 6 10 12 20 12 11 0 26 -6 33 -12z"/>
</g>
</svg>
